<?xml version="1.0" encoding="UTF-8" standalone="no"?>
<!-- Created with Inkscape (http://www.inkscape.org/) -->

<svg
   width="21mm"
   height="22.42462mm"
   viewBox="0 0 21 22.42462"
   version="1.1"
   id="svg1"
   inkscape:version="1.3.2 (091e20ef0f, 2023-11-25)"
   sodipodi:docname="symbol_ovladac.svg"
   xmlns:inkscape="http://www.inkscape.org/namespaces/inkscape"
   xmlns:sodipodi="http://sodipodi.sourceforge.net/DTD/sodipodi-0.dtd"
   xmlns="http://www.w3.org/2000/svg"
   xmlns:svg="http://www.w3.org/2000/svg">
  <sodipodi:namedview
     id="namedview1"
     pagecolor="#ffffff"
     bordercolor="#000000"
     borderopacity="0.25"
     inkscape:showpageshadow="2"
     inkscape:pageopacity="0.0"
     inkscape:pagecheckerboard="0"
     inkscape:deskcolor="#d1d1d1"
     inkscape:document-units="mm"
     inkscape:zoom="2.1543544"
     inkscape:cx="5.105938"
     inkscape:cy="81.46292"
     inkscape:window-width="1920"
     inkscape:window-height="1052"
     inkscape:window-x="0"
     inkscape:window-y="0"
     inkscape:window-maximized="1"
     inkscape:current-layer="layer1" />
  <defs
     id="defs1" />
  <g
     inkscape:label="Vrstva 1"
     inkscape:groupmode="layer"
     id="layer1"
     transform="translate(-127.79375,-39.6875)">
    <g
       id="g37"
       inkscape:label="ovladac"
       transform="matrix(0.67944784,0,0,0.67944784,61.573492,32.533426)">
      <path
         style="fill:none;stroke:#ffffff;stroke-width:1.25084;stroke-linecap:round;stroke-linejoin:round;stroke-dasharray:none;stroke-opacity:1"
         d="m 112.52223,21.658816 c 0,0 -0.83008,-4.950342 0.359,-5.858784 1.18907,-0.908441 3.78068,1.951248 5.03284,-0.06528 1.25216,-2.016533 0.81269,-4.580085 0.81269,-4.580085"
         id="path36"
         sodipodi:nodetypes="czzc" />
      <path
         id="rect34"
         style="fill:none;fill-opacity:1;stroke:#ffffff;stroke-width:1.2;stroke-dasharray:none"
         d="m 107.91331,21.790918 c -4.22735,0.06555 -5.4304,2.743548 -6.55722,5.982581 l -3.118675,8.963277 c -1.163169,3.343512 4.085195,8.251586 6.003255,5.276163 l 4.02352,-6.241996 h 9.30124 l 4.0256,6.245614 c 1.91806,2.975423 7.1659,-1.932651 6.00273,-5.276164 l -3.11815,-8.963794 c -1.16317,-3.343518 -2.40751,-6.089015 -6.97581,-5.980513 -3.1954,0.01347 -6.39118,-0.02109 -9.58649,-0.0052 z"
         sodipodi:nodetypes="scccccccccs" />
      <circle
         style="fill:none;stroke:#ffffff;stroke-width:0.6;stroke-dasharray:none;stroke-opacity:1"
         id="path35-3"
         cx="109.47589"
         cy="31.504829"
         r="1.9070492" />
      <circle
         style="fill:#ffffff;stroke-width:0.823484;stroke-dasharray:none;stroke-opacity:1"
         id="path35"
         cx="107.08725"
         cy="26.00588"
         r="2.1101723" />
      <circle
         style="fill:#ffffff;stroke-width:0.823484;stroke-dasharray:none;stroke-opacity:1"
         id="circle35"
         cx="118.49905"
         cy="26.00588"
         r="2.1101723" />
      <circle
         style="fill:none;stroke:#ffffff;stroke-width:0.6;stroke-dasharray:none;stroke-opacity:1"
         id="circle37"
         cx="115.59964"
         cy="31.504829"
         r="1.9070492" />
    </g>
  </g>
</svg>
